<?xml version="1.0" encoding="utf-8"?>
<!-- Generator: Adobe Illustrator 16.0.0, SVG Export Plug-In . SVG Version: 6.00 Build 0)  -->
<!DOCTYPE svg PUBLIC "-//W3C//DTD SVG 1.1//EN" "http://www.w3.org/Graphics/SVG/1.1/DTD/svg11.dtd">
<svg version="1.1" id="Layer_1" xmlns="http://www.w3.org/2000/svg" xmlns:xlink="http://www.w3.org/1999/xlink" x="0px" y="0px"
	 width="40px" height="40px" viewBox="-4 -4 40 40" enable-background="new -4 -4 40 40" xml:space="preserve">
<path display="none" fill="#F15F22" d="M32.001,16.001c0,8.851-7.149,16-15.999,16c-8.851,0-16-7.149-16-16
	c0-8.85,7.149-15.999,16-15.999C24.852,0.001,32.001,7.151,32.001,16.001z"/>
<g>
	<rect x="3.177" y="25.216" fill="none" stroke="#FF6600" stroke-miterlimit="10" width="6.118" height="3.9"/>
	
		<rect x="6.717" y="19.519" transform="matrix(-0.3315 0.9435 -0.9435 -0.3315 36.7105 15.5412)" fill="none" stroke="#FF6600" stroke-miterlimit="10" width="12.265" height="2.515"/>
	<g>
		<path fill="none" stroke="#FF6600" stroke-miterlimit="10" d="M6.516,7.529l-0.973,3.338c0,0-0.589,1.552,0.856,2.034
			c1.629,0.496,14.02,4.179,14.02,4.179l2.789-4.771L6.516,7.529z"/>
		<path fill="none" stroke="#FF6600" stroke-miterlimit="10" d="M28.803,11.047c0.212-0.078,4.511-2.404,4.511-2.404
			c-0.324-0.329-0.515-0.573-0.995-0.713L9.624,1.282C8.129,0.843,6.571,1.683,6.14,3.162L5.434,5.561c0,0,19.47,5.704,20.069,5.789
			l-2.045,3.605l5.909,2.057l1.981-5.863C31.352,11.149,29.127,11.149,28.803,11.047L28.803,11.047z"/>
	</g>
	<g>
		<path fill="none" stroke="#FF6600" stroke-miterlimit="10" d="M4.838,25.503l-0.712-1.057c3.897-2.407,5.233-8.819,5.195-13.581
			C9.321,10.865,9.182,22.829,4.838,25.503z"/>
	</g>
	<path fill="none" stroke="#FF6600" stroke-miterlimit="10" d="M5.382,27.147c0,3.296-1.82,5.967-4.068,5.967V21.179
		C3.562,21.179,5.382,23.851,5.382,27.147z"/>
</g>
</svg>
