<?xml version="1.0" encoding="utf-8"?>
<!-- Generator: Adobe Illustrator 16.0.0, SVG Export Plug-In . SVG Version: 6.00 Build 0)  -->
<!DOCTYPE svg PUBLIC "-//W3C//DTD SVG 1.1//EN" "http://www.w3.org/Graphics/SVG/1.1/DTD/svg11.dtd">
<svg version="1.1" id="Layer_1" xmlns="http://www.w3.org/2000/svg" xmlns:xlink="http://www.w3.org/1999/xlink" x="0px" y="0px"
	 width="40px" height="40px" viewBox="-4 -4 40 40" enable-background="new -4 -4 40 40" xml:space="preserve">
<path display="none" fill="#F15F22" d="M32,16.2c0,8.85-7.148,16-16,16c-8.852,0-16-7.149-16-16c0-8.851,7.15-16,16-16
	C24.85,0.2,32,7.35,32,16.2z"/>
<path fill="none" stroke="#F16125" stroke-miterlimit="10" d="M5.302,20.123l13.479,3.791c0.791-0.2,0.791-0.397,0.791-0.397
	l13.176-15.17c0.705-1.496-0.295-1.599-0.295-1.599L16.784,3.154h-1L2.806,17.528c-1.598,2.097-1.795,4.59-1.795,4.59
	c-0.2,3.695,2.397,5.492,2.397,5.492s14.874,4.491,15.67,4.491c0.797-0.101,1.198-0.398,1.198-0.398l12.077-14.474v-4.192
	c0,0,0.399-0.9-0.997-0.9c-1.4,0-1.497,1.201-1.497,1.201v3.49L18.68,29.704L4.803,25.712c0,0-1.501-0.698-1.501-3.095
	C3.505,20.321,5.302,20.123,5.302,20.123z M14.087,9.544l1.098-1.398c0.099-0.296,0.501-0.398,0.798-0.398l9.281,2.396
	c0.302,0.099,0.599,0.4,0.502,0.6l-1.2,1.6c-0.1,0.296-0.399,0.396-0.797,0.396l-9.481-2.696
	C14.087,10.141,13.887,9.842,14.087,9.544z"/>
</svg>
