<?xml version="1.0" encoding="utf-8"?>
<!-- Generator: Adobe Illustrator 16.0.0, SVG Export Plug-In . SVG Version: 6.00 Build 0)  -->
<!DOCTYPE svg PUBLIC "-//W3C//DTD SVG 1.1//EN" "http://www.w3.org/Graphics/SVG/1.1/DTD/svg11.dtd">
<svg version="1.1" id="Layer_1" xmlns="http://www.w3.org/2000/svg" xmlns:xlink="http://www.w3.org/1999/xlink" x="0px" y="0px"
	 width="40px" height="40px" viewBox="12 12 40 40" enable-background="new 12 12 40 40" xml:space="preserve">
<g display="none">
	<path display="inline" fill="#FFFFFF" d="M40.8,16.2h-18c-2.2,0-4,1.8-4,4V44.1c0,2.2,1.8,4,4,4h18c2.2,0,4-1.8,4-4V20.3
		C44.8,18,43,16.2,40.8,16.2z M35,46.2h-6.3V44H35V46.2z M40.8,42.2h-18V20.1h18V42.2z"/>
</g>
<g display="none">
	<g display="inline">
		<path fill="#FFFFFF" d="M29,47.9c-2.5,0-4.5-1.7-4.5-4V21.1c0-3.3,2-5.2,5.4-5.2h4c3.6,0,5.6,1.9,5.6,5.2v16.3H38V21.1
			c0-2.5-1.3-3.7-4.1-3.7h-4c-2.5,0-3.8,1.3-3.8,3.7v22.8c0,1.397,1.2,2.397,2.9,2.397h2.5c1.6,0,2.6-0.897,2.6-2.397V26.8
			c0-1-0.199-1.7-2.1-1.8c-2,0.1-2.2,0.9-2.2,1.8V35.4h-1.5V26.8c0-2.1,1.2-3.2,3.7-3.4c2.5,0.1,3.7,1.2,3.7,3.4V43.9
			c0,2.3-1.7,4-4.2,4H29z"/>
	</g>
</g>
<g id="_x31__19_" display="none">
	<g display="inline">
		<path fill="#FFFFFF" d="M44,32h-2V21c0-2.2-1.8-4-4-4H26c-2.2,0-4,1.8-4,4c0,0,0,10.3,0,11h-2c-2.2,0-4,1.8-4,4v2c0,2.2,1.8,4,4,4
			h2.1c0.4,1.7,2,3,3.9,3h12c1.9,0,3.4-1.3,3.9-3H44c2.2,0,4-1.8,4-4v-2C48,33.8,46.2,32,44,32z M24,21c0-1.1,0.9-2,2-2h12
			c1.1,0,2,0.9,2,2v11H24V21z M38,43H26c-1.1,0-2-0.9-2-2s0.9-2,2-2h12c1.1,0,2,0.9,2,2S39.1,43,38,43z M46,38c0,1.1-0.9,2-2,2h-2.1
			c-0.4-1.7-2-3-3.9-3H26c-1.9,0-3.4,1.3-3.9,3H20c-1.1,0-2-0.9-2-2v-2c0-1.1,0.9-2,2-2h24c1.1,0,2,0.9,2,2V38z"/>
	</g>
</g>
<path fill="none" stroke="#F16024" stroke-miterlimit="10" d="M46.21,24.72h-7.379l-1.989-3.989h-7.877L26.97,24.72h-7.278
	c-1.497,0-2.692,1.195-2.692,2.692v14.455c0,1.493,1.196,2.695,2.692,2.695h26.618c1.493,0,2.689-1.202,2.689-2.695V27.412
	C48.903,25.915,47.703,24.72,46.21,24.72z M30.858,22.525h4.186v2.095h-4.186V22.525z M32.952,42.663
	c-4.486,0-8.076-3.589-8.076-8.076c0-4.486,3.588-8.074,8.076-8.074c4.488,0,8.07,3.587,8.07,8.074
	C41.022,38.972,37.438,42.663,32.952,42.663z M44.915,28.708h-4.087v-2.095h4.087V28.708z"/>
</svg>
