<?xml version="1.0" encoding="utf-8"?>
<!-- Generator: Adobe Illustrator 16.0.0, SVG Export Plug-In . SVG Version: 6.00 Build 0)  -->
<!DOCTYPE svg PUBLIC "-//W3C//DTD SVG 1.1//EN" "http://www.w3.org/Graphics/SVG/1.1/DTD/svg11.dtd">
<svg version="1.1" id="Layer_1" xmlns="http://www.w3.org/2000/svg" xmlns:xlink="http://www.w3.org/1999/xlink" x="0px" y="0px"
	 width="40px" height="40px" viewBox="12 12 40 40" enable-background="new 12 12 40 40" xml:space="preserve">
<path display="none" fill="#F15F22" d="M49.5,30.098c0,8.85-7.15,16-16,16c-8.85,0-16-7.148-16-16s7.15-16,16-16
	C42.35,14.098,49.5,21.248,49.5,30.098z"/>
<g>
	<path fill="none" stroke="#F16024" stroke-miterlimit="10" d="M17.692,18.435c0,0-1.2,1.2,2.4,6.603
		c3,4.4,9.502,9.701,10.604,9.502c1.101-0.201,1.703-0.399,3.3,1.399c1.5,1.902,4.901,7.902,6.501,7.706
		c1.6-0.201,2.5-0.5,1.401-2.902c-1.102-2.397-20.407-20.407-20.407-20.407S18.492,17.433,17.692,18.435z"/>
	<path fill="none" stroke="#F16024" stroke-miterlimit="10" d="M36.297,32.54c3.201,0.3,4.898-1.5,4.898-1.5l8.305-8.303
		l-0.702-0.699l-7,7.001l-0.602-0.6l7.002-7.003l-0.8-0.8l-7.002,7l-0.299-0.401l-0.3-0.3l7.001-7.001l-0.797-0.8L39,26.138
		l-0.601-0.601l7.003-7.002l-0.702-0.7l-8.303,8.402c0,0-1.802,1.601-1.499,4.901c0,0,1.602-0.201-4.404,4.301
		c-6.002,4.499-7.502,7.104-6.902,8.402c1.4,0.702,3.902-0.901,8.405-6.903C36.5,30.938,36.297,32.54,36.297,32.54z"/>
</g>
</svg>
