<?xml version="1.0" encoding="utf-8"?>
<!-- Generator: Adobe Illustrator 16.0.0, SVG Export Plug-In . SVG Version: 6.00 Build 0)  -->
<!DOCTYPE svg PUBLIC "-//W3C//DTD SVG 1.1//EN" "http://www.w3.org/Graphics/SVG/1.1/DTD/svg11.dtd">
<svg version="1.1" id="Layer_1" xmlns="http://www.w3.org/2000/svg" xmlns:xlink="http://www.w3.org/1999/xlink" x="0px" y="0px"
	 width="40px" height="40px" viewBox="12 12 40 40" enable-background="new 12 12 40 40" xml:space="preserve">
<path display="none" fill="#F15F22" d="M48,32c0,8.85-7.15,16-16,16c-8.85,0-16-7.15-16-16c0-8.85,7.15-16,16-16
	C40.85,16,48,23.15,48,32z"/>
<g>
	<path fill="none" stroke="#FE5D02" stroke-miterlimit="10" d="M37.302,17.455c-1.704,0-7.203,0-8.703,0c-1.5,0-6.6,13.9-6.6,13.9
		h22C44,31.354,38.801,17.455,37.302,17.455z"/>
	<path fill="none" stroke="#FE5D02" stroke-miterlimit="10" d="M22,33.454v1.901h10v10.2c-1.5,0-4.2,0-5.201,0
		c-2.7,0-2.7,3.899-2.7,3.899H42c0,0,0-3.899-2.7-3.899c-0.999,0-3.801,0-5.399,0v-10.2h4.198v4.003h1.803v-4.003H44v-1.901H22z"/>
</g>
</svg>
