<?xml version="1.0" encoding="utf-8"?>
<!-- Generator: Adobe Illustrator 16.0.0, SVG Export Plug-In . SVG Version: 6.00 Build 0)  -->
<!DOCTYPE svg PUBLIC "-//W3C//DTD SVG 1.1//EN" "http://www.w3.org/Graphics/SVG/1.1/DTD/svg11.dtd">
<svg version="1.1" id="Layer_1" xmlns="http://www.w3.org/2000/svg" xmlns:xlink="http://www.w3.org/1999/xlink" x="0px" y="0px"
	 width="40px" height="40px" viewBox="12 12 40 40" enable-background="new 12 12 40 40" xml:space="preserve">
<path display="none" fill="#F15F22" d="M49.625,32c0,8.85-7.15,16-16,16c-8.85,0-16-7.15-16-16c0-8.85,7.15-16,16-16
	C42.475,16,49.625,23.149,49.625,32z"/>
<g>
	<path fill="none" stroke="#FE5D02" stroke-miterlimit="10" d="M48.624,43.856v-1.601H16.625v1.601c0,0,0,0.202,1.5,0.399l2.4,0.601
		h24.199l2.4-0.601C48.724,44.053,48.624,43.856,48.624,43.856z"/>
	<path fill="none" stroke="#FE5D02" stroke-miterlimit="10" d="M45.124,21.256c0-0.3-0.299-0.6-0.602-0.6H20.724
		c-0.3,0-0.599,0.297-0.599,0.6v19.1h24.999V21.256z M41.825,37.956h-18.4v-14.6h18.4V37.956z"/>
</g>
</svg>
