<?xml version="1.0" encoding="utf-8"?>
<!-- Generator: Adobe Illustrator 16.0.0, SVG Export Plug-In . SVG Version: 6.00 Build 0)  -->
<!DOCTYPE svg PUBLIC "-//W3C//DTD SVG 1.1//EN" "http://www.w3.org/Graphics/SVG/1.1/DTD/svg11.dtd">
<svg version="1.1" id="Layer_1" xmlns="http://www.w3.org/2000/svg" xmlns:xlink="http://www.w3.org/1999/xlink" x="0px" y="0px"
	 width="40px" height="40px" viewBox="12 12 40 40" enable-background="new 12 12 40 40" xml:space="preserve">
<path display="none" fill="#F15F22" d="M49,32c0,8.85-7.15,16-16,16c-8.85,0-16-7.15-16-16c0-8.85,7.15-16,16-16
	C41.85,16,49,23.149,49,32z"/>
<g display="none">
	<path display="inline" fill="#FFFFFF" d="M40.8,16.2h-18c-2.2,0-4,1.8-4,4V44.1c0,2.2,1.8,4,4,4h18c2.2,0,4-1.8,4-4V20.3
		C44.8,18,43,16.2,40.8,16.2z M35,46.2h-6.3V44H35V46.2z M40.8,42.2h-18V20.1h18V42.2z"/>
</g>
<path display="none" fill="#FFFFFF" d="M44.8,22.1H37.4l-2-4h-7.9l-2,4h-7.3c-1.5,0-2.7,1.2-2.7,2.7v14.5c0,1.5,1.2,2.7,2.7,2.7
	h26.7c1.5,0,2.699-1.2,2.699-2.7V24.8C47.5,23.3,46.3,22.1,44.8,22.1z M29.4,19.9h4.2V22h-4.2V19.9z M31.5,40.1
	c-4.5,0-8.1-3.6-8.1-8.1s3.6-8.1,8.1-8.1s8.1,3.6,8.1,8.1C39.6,36.4,36,40.1,31.5,40.1z M43.5,26.1h-4.1V24h4.1V26.1z"/>
<g display="none">
	<g display="inline">
		<path fill="#FFFFFF" d="M38.7,14.7H25.3c-0.8,0-1.5,0.7-1.5,1.5v29c0,0.8,0.7,1.5,1.5,1.5h13.3c0.801,0,1.5-0.7,1.5-1.5v-29
			C40.2,15.3,39.5,14.7,38.7,14.7 M30.7,16.2h2.5c0.2,0,0.3,0.1,0.3,0.3s-0.1,0.3-0.3,0.3h-2.5c-0.2,0-0.3-0.1-0.3-0.3
			S30.6,16.2,30.7,16.2 M32,45.6c-0.8,0-1.4-0.6-1.4-1.397s0.6-1.4,1.4-1.4s1.4,0.603,1.4,1.4S32.8,45.6,32,45.6 M38.8,41
			c0,0.4-0.3,0.8-0.8,0.8H26c-0.4,0-0.8-0.3-0.8-0.8V18.8c0-0.4,0.3-0.8,0.8-0.8h12c0.4,0,0.8,0.3,0.8,0.8V41z"/>
	</g>
</g>
<g>
	<path fill="none" stroke="#FE5D02" stroke-miterlimit="10" d="M46.1,16.652H18v5.4h28.1V16.652z M21.8,20.451h-2.101v-1.999H21.8
		V20.451z M25.6,20.451h-2.1v-1.999h2.1V20.451z"/>
	<path fill="none" stroke="#FE5D02" stroke-miterlimit="10" d="M18,24.153v24.499h28.199V24.153H18z M32.1,46.95
		c-5.799,0-10.5-4.701-10.5-10.501c0-5.796,4.699-10.499,10.5-10.499c5.797,0,10.5,4.703,10.5,10.499
		C42.6,42.252,37.896,46.95,32.1,46.95z"/>
	<path fill="none" stroke="#FE5D02" stroke-miterlimit="10" d="M32.1,28.053c-4.6,0-8.4,3.699-8.4,8.299
		c0,4.598,3.801,8.301,8.4,8.301c4.602,0,8.4-3.703,8.4-8.301S36.799,28.053,32.1,28.053z M38.299,37.352c0.1,0,0.3,0,0.398-0.098
		c-0.398,3.2-3.198,5.7-6.599,5.7c-3.701,0-6.702-3.002-6.702-6.603c0-3.699,3-6.6,6.702-6.6c3.4,0,6.197,2.5,6.599,5.701
		c-0.099-0.103-0.299-0.103-0.398-0.103c-0.601,0-1,0.401-1,1.001C37.299,36.952,37.799,37.352,38.299,37.352z"/>
</g>
</svg>
