<?xml version="1.0" encoding="utf-8"?>
<!-- Generator: Adobe Illustrator 16.0.0, SVG Export Plug-In . SVG Version: 6.00 Build 0)  -->
<!DOCTYPE svg PUBLIC "-//W3C//DTD SVG 1.1//EN" "http://www.w3.org/Graphics/SVG/1.1/DTD/svg11.dtd">
<svg version="1.1" id="Layer_1" xmlns="http://www.w3.org/2000/svg" xmlns:xlink="http://www.w3.org/1999/xlink" x="0px" y="0px"
	 width="40px" height="40px" viewBox="12 12 40 40" enable-background="new 12 12 40 40" xml:space="preserve">
<path display="none" fill="#F15F22" d="M44.709,20.933c0,8.85-7.15,16-16,16c-8.85,0-16-7.151-16-16c0-8.85,7.15-16,16-16
	C37.559,4.933,44.709,12.083,44.709,20.933z"/>
<g>
	<path fill="none" stroke="#FE5D02" stroke-miterlimit="10" d="M25.136,41.878c-2.046,0-3.708,1.649-3.708,3.685
		c0,2.037,1.663,3.69,3.708,3.69c2.047,0,3.707-1.652,3.707-3.69C28.842,43.529,27.184,41.878,25.136,41.878z M25.136,47.859
		c-1.273,0-2.309-1.027-2.309-2.297c0-1.271,1.034-2.297,2.309-2.297s2.313,1.028,2.313,2.297
		C27.449,46.832,26.412,47.859,25.136,47.859z"/>
	<path fill="none" stroke="#FE5D02" stroke-miterlimit="10" d="M40.202,41.878c-2.035,0-3.684,1.649-3.684,3.685
		c0,2.037,1.648,3.69,3.684,3.69s3.688-1.652,3.688-3.69C43.891,43.529,42.237,41.878,40.202,41.878z M40.202,47.863
		c-1.269,0-2.293-1.031-2.293-2.301c0-1.271,1.026-2.297,2.293-2.297s2.301,1.028,2.301,2.297
		C42.503,46.832,41.469,47.863,40.202,47.863z"/>
	<path fill="none" stroke="#FE5D02" stroke-miterlimit="10" d="M38.56,17.296c0,0-4.658,6.43-5.245,9.253h14.271
		C47.583,16.084,42.323,17.296,38.56,17.296z"/>
	<path fill="none" stroke="#FE5D02" stroke-miterlimit="10" d="M47.651,28.81h-18l-4.342-3.896h-6.758
		c-0.529,0-0.956,0.392-0.956,0.877c0,0.481,0.429,0.874,0.956,0.874h5.963l2.397,2.146h-9.19c0.126,6-1.41,10.956,14.31,10.956
		C48.471,39.768,47.628,34.869,47.651,28.81z"/>
</g>
</svg>
