<?xml version="1.0" encoding="utf-8"?>
<!-- Generator: Adobe Illustrator 16.0.0, SVG Export Plug-In . SVG Version: 6.00 Build 0)  -->
<!DOCTYPE svg PUBLIC "-//W3C//DTD SVG 1.1//EN" "http://www.w3.org/Graphics/SVG/1.1/DTD/svg11.dtd">
<svg version="1.1" id="Layer_1" xmlns="http://www.w3.org/2000/svg" xmlns:xlink="http://www.w3.org/1999/xlink" x="0px" y="0px"
	 width="40px" height="40px" viewBox="-4 -4 40 40" enable-background="new -4 -4 40 40" xml:space="preserve">
<path display="none" fill="#F15F22" d="M32.001,16.001c0,8.851-7.149,16-15.999,16c-8.851,0-16-7.149-16-16
	c0-8.85,7.149-15.999,16-15.999C24.852,0.001,32.001,7.151,32.001,16.001z"/>
<g>
	<path fill="none" stroke="#FE5D02" stroke-miterlimit="10" d="M23.806,18.067c-0.757,1.409-1.7,4.163-2.799,6.665
		c-1.205,2.762-2.588-4.111-4.101-4.111c-1.554,0-3.008,6.745-4.263,3.919c-1.083-2.438-2.018-5.059-2.756-6.406
		c-7.654,0-7.885,15.134-7.885,15.134h29.809C31.809,33.276,32.41,18.067,23.806,18.067z"/>
	<path fill="none" stroke="#FE5D02" stroke-miterlimit="10" d="M22.434,7.65c0,3.523-2.495,10.266-5.581,10.266
		c-3.082,0-5.577-6.741-5.577-10.266c0-3.524,2.494-6.382,5.577-6.382C19.938,1.265,22.434,4.125,22.434,7.65z"/>
</g>
</svg>
