<?xml version="1.0" encoding="utf-8"?>
<!-- Generator: Adobe Illustrator 16.0.0, SVG Export Plug-In . SVG Version: 6.00 Build 0)  -->
<!DOCTYPE svg PUBLIC "-//W3C//DTD SVG 1.1//EN" "http://www.w3.org/Graphics/SVG/1.1/DTD/svg11.dtd">
<svg version="1.1" id="Layer_1" xmlns="http://www.w3.org/2000/svg" xmlns:xlink="http://www.w3.org/1999/xlink" x="0px" y="0px"
	 width="40px" height="40px" viewBox="-4 -4 40 40" enable-background="new -4 -4 40 40" xml:space="preserve">
<path display="none" fill="#F15F22" d="M32.001,16.001c0,8.851-7.149,16-15.999,16c-8.851,0-16-7.149-16-16
	c0-8.85,7.149-15.999,16-15.999C24.852,0.001,32.001,7.151,32.001,16.001z"/>
<path fill="none" stroke="#FE5D02" stroke-miterlimit="10" d="M28.522,26.193l-5.969-7.36c0,0,3.204,0.874,3.553,0.874
	c0.93,0,0.387-1.033,0-1.429l-4.772-6.063c0,0,2.296-0.549,3.129-0.549c0.838,0,0.397-1.033,0-1.428l-6.698-8.287
	c-0.395-0.393-1.034-0.393-1.428,0l-6.791,8.2c-0.397,0.396-0.973,1.431,0,1.431c0.974,0,3.245,0.632,3.245,0.632l-5.176,5.773
	c-0.397,0.396-1.115,1.429,0,1.429c0.635,0,3.898-0.583,3.898-0.583l-5.917,7.376c-0.395,0.39-1.117,1.426,0,1.426
	c1.113,0,9.38-2.012,9.38-2.012v6.089c0,1.074,0.872,1.945,1.952,1.945c1.072,0,2.029-0.87,2.029-1.945v-6.089
	c0,0,8.75,1.995,9.563,1.995C29.329,27.623,28.915,26.585,28.522,26.193z"/>
</svg>
