<?xml version="1.0" encoding="utf-8"?>
<!-- Generator: Adobe Illustrator 16.0.0, SVG Export Plug-In . SVG Version: 6.00 Build 0)  -->
<!DOCTYPE svg PUBLIC "-//W3C//DTD SVG 1.1//EN" "http://www.w3.org/Graphics/SVG/1.1/DTD/svg11.dtd">
<svg version="1.1" id="Layer_1" xmlns="http://www.w3.org/2000/svg" xmlns:xlink="http://www.w3.org/1999/xlink" x="0px" y="0px"
	 width="40px" height="40px" viewBox="12 12 40 40" enable-background="new 12 12 40 40" xml:space="preserve">
<path display="none" fill="#F15F22" d="M48,30.9c0,8.85-7.15,16-16,16c-8.85,0-16-7.15-16-16s7.15-16,16-16
	C40.85,14.9,48,22.05,48,30.9z"/>
<path fill="none" stroke="#FE5D02" stroke-miterlimit="10" d="M37.563,16.9h-9.998c-2.199,0-3.999,0-3.999,2v28.086
	c0,2.2,1.8,1.899,3.999,1.899h9.998c2.198,0,3.996,0.3,3.996-1.899V18.898C41.559,16.9,39.76,16.9,37.563,16.9z M33.861,47.286
	h-2.499v-2.8h2.499V47.286z M39.658,42.888H25.565v-23.99h14.093V42.888z"/>
</svg>
