<?xml version="1.0" encoding="utf-8"?>
<!-- Generator: Adobe Illustrator 16.0.0, SVG Export Plug-In . SVG Version: 6.00 Build 0)  -->
<!DOCTYPE svg PUBLIC "-//W3C//DTD SVG 1.1//EN" "http://www.w3.org/Graphics/SVG/1.1/DTD/svg11.dtd">
<svg version="1.1" id="Layer_1" xmlns="http://www.w3.org/2000/svg" xmlns:xlink="http://www.w3.org/1999/xlink" x="0px" y="0px"
	 width="40px" height="40px" viewBox="-4 -4 40 40" enable-background="new -4 -4 40 40" xml:space="preserve">
<path display="none" fill="#F15F22" d="M32.001,16.001c0,8.851-7.149,16-15.999,16c-8.851,0-16-7.149-16-16
	c0-8.85,7.149-15.999,16-15.999C24.852,0.001,32.001,7.151,32.001,16.001z"/>
<g>
	<path fill="none" stroke="#FE5D02" stroke-miterlimit="10" d="M21.911,21.103c-0.143-0.932-0.514-1.789-1.064-2.511l1.242-1.24
		l-1.113-1.111l-1.248,1.248c-0.72-0.529-1.571-0.889-2.496-1.024v-1.772h-1.574v1.762c-0.934,0.125-1.793,0.48-2.525,1.006
		l-1.216-1.22l-1.114,1.114l1.196,1.195c-0.565,0.729-0.948,1.593-1.09,2.545H9.251l0,0l0,0v1.577h1.647
		c0.133,0.955,0.511,1.836,1.074,2.569l-1.174,1.172l1.113,1.112l1.179-1.179c0.737,0.542,1.61,0.911,2.563,1.042v1.692h1.577
		v-1.703c0.941-0.145,1.802-0.511,2.533-1.055l1.207,1.207l1.113-1.114l-1.208-1.211c0.548-0.723,0.911-1.587,1.045-2.529h1.714
		v-0.002l0,0v-1.577h-1.726v0.007H21.911z M16.427,24.773c-1.594,0-2.882-1.292-2.882-2.885c0-1.594,1.289-2.882,2.882-2.882
		c1.592,0,2.888,1.288,2.888,2.882C19.313,23.481,18.019,24.773,16.427,24.773z"/>
	<g>
		<path fill="none" stroke="#FE5D02" stroke-miterlimit="10" d="M30.237,11.949l1.765-0.455L31.596,9.91l-1.769,0.454
			c-0.188-0.387-0.432-0.759-0.746-1.088c-0.307-0.317-0.669-0.557-1.045-0.75l0.487-1.747l-1.575-0.438l-0.483,1.734
			c-0.875-0.069-1.767,0.125-2.534,0.62l-1.229-1.256l-1.169,1.144l1.223,1.246c-0.525,0.763-0.758,1.657-0.713,2.55l-1.684,0.436
			l0.407,1.581l1.682-0.435c0.189,0.393,0.429,0.77,0.751,1.097c0.328,0.337,0.713,0.585,1.111,0.785l-0.469,1.679l1.572,0.438
			l0.474-1.695c0.878,0.054,1.767-0.163,2.531-0.672l1.245,1.273l1.167-1.145l-1.256-1.278
			C30.068,13.691,30.285,12.816,30.237,11.949z M26.164,14.566c-1.331,0-2.412-1.083-2.412-2.415c0-1.331,1.081-2.41,2.412-2.41
			c1.327,0,2.41,1.08,2.41,2.41C28.574,13.484,27.491,14.566,26.164,14.566z"/>
	</g>
	<g>
		<path fill="none" stroke="#FE5D02" stroke-miterlimit="10" d="M9.882,11.949l1.764-0.455L11.237,9.91L9.47,10.364
			c-0.188-0.387-0.429-0.76-0.746-1.088c-0.308-0.317-0.671-0.557-1.045-0.75L8.167,6.78L6.592,6.341L6.108,8.075
			C5.233,8.006,4.34,8.2,3.573,8.695L2.345,7.439L1.177,8.583l1.224,1.246c-0.528,0.763-0.758,1.658-0.713,2.55l-1.686,0.436
			l0.408,1.58l1.68-0.434c0.19,0.394,0.432,0.77,0.753,1.097c0.33,0.336,0.71,0.585,1.11,0.785l-0.468,1.679l1.571,0.438
			l0.475-1.695c0.878,0.053,1.766-0.163,2.53-0.672l1.246,1.273l1.166-1.145L9.22,14.44C9.713,13.691,9.929,12.816,9.882,11.949z
			 M5.807,14.566c-1.331,0-2.411-1.083-2.411-2.415c0-1.331,1.081-2.41,2.411-2.41s2.411,1.08,2.411,2.41
			C8.218,13.484,7.136,14.566,5.807,14.566z"/>
	</g>
</g>
</svg>
