<?xml version="1.0" encoding="utf-8"?>
<!-- Generator: Adobe Illustrator 16.0.0, SVG Export Plug-In . SVG Version: 6.00 Build 0)  -->
<!DOCTYPE svg PUBLIC "-//W3C//DTD SVG 1.1//EN" "http://www.w3.org/Graphics/SVG/1.1/DTD/svg11.dtd">
<svg version="1.1" id="Layer_1" xmlns="http://www.w3.org/2000/svg" xmlns:xlink="http://www.w3.org/1999/xlink" x="0px" y="0px"
	 width="40px" height="40px" viewBox="-4 -4 40 40" enable-background="new -4 -4 40 40" xml:space="preserve">
<path display="none" fill="#F15F22" d="M32.001,16.001c0,8.851-7.149,16-15.999,16c-8.851,0-16-7.149-16-16
	c0-8.85,7.149-15.999,16-15.999C24.852,0.001,32.001,7.151,32.001,16.001z"/>
<g>
	<path fill="none" stroke="#FE5D02" stroke-miterlimit="10" d="M28.638,8.767H5.36C2.956,8.767,1,10.738,1,13.16v15.066
		c0,2.427,1.954,4.394,4.36,4.394h23.278c2.409,0,4.362-1.967,4.362-4.394V13.16C33,10.736,31.047,8.767,28.638,8.767z
		 M23.188,22.859h-3.988v4.003h-4.284v-4.003h-3.983v-4.293h3.983v-4.003h4.284v4.003h3.988V22.859z"/>
	<path fill="none" stroke="#FE5D02" stroke-miterlimit="10" d="M22.991,6.5c0-2.09-1.69-3.872-3.76-3.872h-4.412
		c-2.076,0-3.858,1.781-3.858,3.872l1.957-0.012c0-1.205,0.731-2.067,1.928-2.067h4.367c1.2,0,1.981,0.867,1.981,2.067L22.991,6.5z"
		/>
</g>
</svg>
