<?xml version="1.0" encoding="utf-8"?>
<!-- Generator: Adobe Illustrator 16.0.0, SVG Export Plug-In . SVG Version: 6.00 Build 0)  -->
<!DOCTYPE svg PUBLIC "-//W3C//DTD SVG 1.1//EN" "http://www.w3.org/Graphics/SVG/1.1/DTD/svg11.dtd">
<svg version="1.1" id="Layer_1" xmlns="http://www.w3.org/2000/svg" xmlns:xlink="http://www.w3.org/1999/xlink" x="0px" y="0px"
	 width="40px" height="40px" viewBox="12 12 40 40" enable-background="new 12 12 40 40" xml:space="preserve">
<path display="none" fill="#F15F22" d="M49,32.732c0,8.852-7.15,16.002-16,16.002c-8.85,0-16-7.15-16-16.002c0-8.851,7.15-16,16-16
	C41.85,16.733,49,23.883,49,32.732z"/>
<g>
	<path fill="none" stroke="#FE5D02" stroke-miterlimit="10" d="M47.7,24.999H35.8l5.5-7.6l-2-0.4l-5.801,8.1l0,0l-5.801-8.1l-2,0.4
		l5.5,7.6H18.2c-0.7,0-1.2,0.5-1.2,1.1V47.8c0,0.601,0.5,1.201,1.2,1.201h29.6c0.7,0,1.2-0.5,1.2-1.201V26.099
		C48.9,25.499,48.4,24.999,47.7,24.999z M42.9,44.3c0,0.402-0.298,0.701-0.7,0.701H21.3c-0.4,0-0.7-0.297-0.7-0.701V29.5
		c0-0.398,0.3-0.699,0.7-0.699h20.9c0.402,0,0.703,0.298,0.703,0.699v14.8H42.9z M47.103,45.1h-2.201v-2.102h2.201V45.1z"/>
</g>
</svg>
