<?xml version="1.0" encoding="utf-8"?>
<!-- Generator: Adobe Illustrator 16.0.0, SVG Export Plug-In . SVG Version: 6.00 Build 0)  -->
<!DOCTYPE svg PUBLIC "-//W3C//DTD SVG 1.1//EN" "http://www.w3.org/Graphics/SVG/1.1/DTD/svg11.dtd">
<svg version="1.1" id="Layer_1" xmlns="http://www.w3.org/2000/svg" xmlns:xlink="http://www.w3.org/1999/xlink" x="0px" y="0px"
	 width="40px" height="40px" viewBox="12 12 40 40" enable-background="new 12 12 40 40" xml:space="preserve">
<path display="none" fill="#F15F22" d="M44.709,20.933c0,8.85-7.15,16-16,16c-8.85,0-16-7.151-16-16c0-8.85,7.15-16,16-16
	C37.559,4.933,44.709,12.083,44.709,20.933z"/>
<g>
	<path fill="none" stroke="#FE5D02" stroke-miterlimit="10" d="M38.982,17H24.66c-1.301,0-2.418,0-2.418,2.046v5.673
		c0,1.117,0,2.046,2.418,2.046h14.326c2.42,0,2.418-0.93,2.418-2.046v-5.673C41.403,17,40.287,17,38.982,17z M39.076,20.906h-2.603
		v-2.138h2.603V20.906z"/>
	<path fill="none" stroke="#FE5D02" stroke-miterlimit="10" d="M38.982,49c2.605,0,2.419-0.931,2.419-2.046V31.048
		c0-1.116,0.002-2.045-2.419-2.045H24.66c-2.433,0-2.418,0.93-2.418,2.045v15.906c0,1.115-0.339,2.046,2.418,2.046H38.982
		 M39.076,37.092h-2.603v-4.373h2.603V37.092z"/>
</g>
</svg>
